<?xml version="1.0" standalone="no"?>
<!DOCTYPE svg PUBLIC "-//W3C//DTD SVG 20010904//EN"
 "http://www.w3.org/TR/2001/REC-SVG-20010904/DTD/svg10.dtd">
<svg version="1.0" xmlns="http://www.w3.org/2000/svg"
 width="1408.000000pt" height="1408.000000pt" viewBox="0 0 1408.000000 1408.000000"
 preserveAspectRatio="xMidYMid meet">
<metadata>
Created by potrace 1.14, written by Peter Selinger 2001-2017
</metadata>
<g transform="translate(0.000000,1408.000000) scale(0.100000,-0.100000)"
fill="#000000" stroke="none">
<path d="M0 13260 l0 -819 27 5 c16 2 2757 369 6093 814 3336 445 6076 811
6090 813 14 2 -2728 5 -6092 6 l-6118 1 0 -820z"/>
<path d="M7030 13139 c-3858 -516 -7018 -938 -7022 -939 -5 0 -8 -2682 -8
-5959 l0 -5960 32 5 c75 12 14013 1872 14015 1870 1 -1 8 -46 16 -101 13 -88
15 653 16 5963 1 5768 0 6062 -16 6061 -10 -1 -3175 -424 -7033 -940z m-2700
-3332 c52 -13 126 -38 163 -55 62 -28 66 -32 58 -54 -16 -41 -113 -273 -116
-276 -1 -2 -28 9 -60 23 -261 115 -539 105 -574 -21 -17 -61 11 -101 89 -129
25 -9 110 -32 190 -51 264 -63 342 -95 431 -181 70 -66 99 -129 106 -230 18
-227 -138 -412 -400 -473 -175 -40 -375 -35 -574 15 -95 24 -244 87 -263 111
-8 8 7 52 51 150 33 77 63 142 65 145 2 4 39 -11 81 -32 112 -55 239 -89 358
-96 175 -10 268 26 281 108 12 75 -49 110 -296 168 -257 61 -332 93 -421 178
-83 79 -103 131 -104 263 0 97 2 110 32 172 72 152 216 252 418 288 28 5 127
7 220 6 142 -3 186 -8 265 -29z m880 -427 c0 -453 4 -497 46 -583 44 -87 146
-135 263 -124 101 9 170 58 213 152 23 50 23 54 26 518 l3 467 205 0 206 0 -4
-472 c-4 -447 -6 -477 -26 -551 -31 -114 -76 -192 -157 -272 -132 -132 -260
-178 -500 -178 -121 0 -165 4 -228 21 -255 69 -409 247 -446 517 -7 44 -11
256 -11 506 l0 429 205 0 205 0 0 -430z m2103 414 c114 -25 231 -86 303 -158
69 -70 108 -142 129 -241 63 -296 -98 -545 -402 -626 -62 -17 -120 -22 -280
-26 l-203 -6 0 -188 0 -189 -205 0 -205 0 0 725 0 725 396 0 c324 0 408 -3
467 -16z m1787 -139 l0 -155 -365 0 -365 0 0 -125 0 -125 320 0 320 0 0 -150
0 -150 -320 0 -320 0 0 -135 0 -135 380 0 380 0 0 -160 0 -160 -585 0 -585 0
0 725 0 725 570 0 570 0 0 -155z m1137 135 c316 -76 488 -339 418 -638 -29
-123 -108 -233 -216 -303 -27 -17 -49 -33 -49 -36 0 -2 68 -102 150 -222 83
-120 150 -221 150 -225 0 -3 -97 -6 -215 -6 l-214 0 -133 195 -133 195 -112 0
-113 0 0 -195 0 -195 -205 0 -205 0 0 725 0 725 398 0 c361 0 405 -2 479 -20z
m-6954 -2396 c246 -19 529 -123 716 -265 79 -59 221 -199 221 -217 0 -6 -105
-105 -232 -221 l-232 -210 -76 73 c-117 113 -210 169 -340 205 -149 42 -322
36 -470 -14 -310 -106 -487 -396 -466 -765 14 -254 119 -451 308 -576 184
-123 462 -153 677 -75 112 41 192 92 287 183 l81 78 231 -208 c127 -114 231
-213 231 -219 1 -21 -127 -150 -211 -213 -268 -202 -580 -290 -980 -277 -319
11 -562 84 -798 241 -273 182 -470 469 -547 796 -33 141 -42 398 -19 545 99
646 613 1096 1306 1145 102 7 162 6 313 -6z m2019 -536 l3 -493 508 -3 507 -2
0 495 0 495 370 0 370 0 0 -1315 0 -1315 -370 0 -370 0 0 515 0 515 -507 -2
-508 -3 -3 -512 -2 -513 -370 0 -370 0 0 1315 0 1315 370 0 370 0 2 -492z
m4449 -821 c318 -719 579 -1310 579 -1313 0 -2 -174 -3 -387 -2 l-387 3 -101
250 -102 250 -558 0 -558 0 -102 -250 -101 -250 -381 -3 -381 -2 545 1232
c299 678 560 1270 580 1316 l35 82 370 -2 369 -3 580 -1308z m2769 1018 l0
-295 -400 0 -400 0 0 -1020 0 -1020 -375 0 -375 0 0 1020 0 1020 -405 0 -405
0 0 295 0 295 1180 0 1180 0 0 -295z"/>
<path d="M6860 9274 l0 -216 158 4 c202 7 261 28 301 106 43 86 32 189 -26
253 -51 56 -104 69 -285 69 l-148 0 0 -216z"/>
<path d="M9770 9274 l0 -216 158 5 c179 6 221 16 274 69 72 72 73 209 1 289
-51 56 -104 69 -285 69 l-148 0 0 -216z"/>
<path d="M8631 6212 c-90 -224 -165 -413 -168 -419 -4 -10 66 -13 331 -13 185
0 336 2 336 4 0 5 -331 830 -334 833 -1 2 -76 -181 -165 -405z"/>
<path d="M7030 979 c-3858 -516 -7018 -938 -7022 -939 -5 0 -8 -9 -8 -20 0
-20 7 -20 7040 -20 l7040 0 0 960 c0 908 -1 960 -17 959 -10 -1 -3175 -424
-7033 -940z"/>
</g>
</svg>
