<svg xmlns="http://www.w3.org/2000/svg" fill="none" viewBox="0 0 227 58">
  <defs/>
  <path fill="#31487A" d="M1 0h226v52H1z"/>
  <g filter="url(#filter0_d)">
    <rect width="219" height="48" x="4" y="2" fill="#4285F4" rx="1"/>
  </g>
  <g filter="url(#filter1_dd)">
    <path fill="#fff" d="M48.3 3.4H7.7c-1.3 0-2.3 1-2.3 2.3v40.6c0 1.3 1 2.3 2.3 2.3h40.6c1.3 0 2.3-1 2.3-2.3V5.7c0-1.3-1-2.3-2.3-2.3z"/>
  </g>
  <path fill="#4285F4" fill-rule="evenodd" d="M37.8 26.2l-.2-2H28V28h5.5a4.7 4.7 0 01-2 3v2.6h3.2a10 10 0 003-7.5z" clip-rule="evenodd"/>
  <path fill="#34A853" fill-rule="evenodd" d="M28 36.2c2.5 0 4.9-.8 6.7-2.5l-3.3-2.5a6.1 6.1 0 01-9.1-3.3h-3.4v2.7a10.2 10.2 0 009.1 5.6z" clip-rule="evenodd"/>
  <path fill="#FBBC05" fill-rule="evenodd" d="M22.3 28a6.1 6.1 0 010-4v-2.6h-3.4a10.2 10.2 0 000 9.2l3.4-2.7z" clip-rule="evenodd"/>
  <path fill="#EA4335" fill-rule="evenodd" d="M28 19.9c1.5 0 2.8.5 3.9 1.5l3-3a10.2 10.2 0 00-16 3l3.4 2.7a6 6 0 015.7-4.2z" clip-rule="evenodd"/>
  <path fill="#fff" d="M70.3 28.8c0-.4-.1-.8-.5-1-.3-.3-.9-.6-1.7-.8A13 13 0 0166 26c-1.4-.7-2-1.7-2-3 0-.6.1-1.2.5-1.7s.9-1 1.6-1.2a6 6 0 012.3-.5c.9 0 1.6.2 2.3.5.7.3 1.2.8 1.6 1.3.4.6.5 1.3.5 2h-2.4c0-.6-.2-1-.6-1.3-.3-.3-.8-.5-1.4-.5-.6 0-1.1.2-1.5.4-.3.3-.5.6-.5 1s.2.8.6 1c.4.3 1 .5 1.8.8 1.4.4 2.4 1 3 1.6.7.6 1 1.4 1 2.3a3 3 0 01-1.1 2.5c-.8.6-1.9.9-3.2.9-1 0-1.8-.2-2.6-.5a3.6 3.6 0 01-2.3-3.5H66c0 1.3.8 2 2.4 2 .6 0 1-.1 1.3-.4.4-.2.5-.5.5-1zM77 32h-2.4v-9h2.4v9zm-2.5-11.3c0-.4 0-.7.3-.9.3-.2.6-.3 1-.3s.7 0 1 .3c.2.2.4.5.4.9s-.2.7-.4.9c-.3.2-.6.3-1 .3s-.7 0-1-.3c-.2-.2-.3-.5-.3-1zm4.1 6.7c0-1.3.4-2.4 1-3.3.7-.8 1.6-1.2 2.7-1.2 1 0 1.7.3 2.3 1V23h2.3v8.7c0 .8-.2 1.5-.6 2-.3.6-.8 1-1.5 1.4a5.3 5.3 0 01-4.2 0c-.6-.2-1-.6-1.4-1l1-1.4c.7.6 1.4 1 2.2 1a2 2 0 001.5-.5c.4-.4.5-.9.5-1.5v-.5c-.5.7-1.2 1-2.1 1-1.1 0-2-.5-2.7-1.3-.6-.8-1-2-1-3.4zm2.4.2c0 .8.2 1.5.5 2 .4.4.8.6 1.4.6.7 0 1.2-.3 1.5-.8v-3.8c-.3-.5-.8-.8-1.5-.8-.6 0-1 .2-1.4.7-.3.5-.5 1.2-.5 2.1zM91 23v1c.6-.7 1.5-1.1 2.6-1.1 1 0 1.6.2 2.1.8.5.5.7 1.4.7 2.5V32H94v-5.7c0-.6-.1-1-.3-1.1-.2-.3-.6-.4-1.1-.4-.7 0-1.2.3-1.5.9V32h-2.4v-9h2.2zm14 9h-2.4v-9h2.4v9zm-2.5-11.3c0-.4 0-.7.3-.9.3-.2.6-.3 1-.3s.7 0 1 .3c.2.2.3.5.3.9s0 .7-.3.9c-.3.2-.6.3-1 .3s-.7 0-1-.3c-.2-.2-.3-.5-.3-1zM109 23v1c.7-.7 1.6-1.1 2.7-1.1.9 0 1.6.2 2 .8.5.5.8 1.4.8 2.5V32h-2.4v-5.7c0-.6-.1-1-.3-1.1-.3-.3-.6-.4-1.1-.4-.7 0-1.2.3-1.6.9V32h-2.4v-9h2.3zm19.4 5.7l1.1-5.7h2.4l-2.3 9h-2l-1.7-5.7-1.7 5.7h-2l-2.3-9h2.3l1.1 5.7 1.7-5.7h1.7l1.7 5.7zm7.2 3.3h-2.4v-9h2.4v9zM133 20.7c0-.4.2-.7.4-.9.2-.2.6-.3 1-.3s.7 0 1 .3c.2.2.3.5.3.9s-.1.7-.4.9c-.2.2-.5.3-1 .3-.3 0-.7 0-.9-.3-.2-.2-.4-.5-.4-1zm7.4.1V23h1.6v1.8h-1.6v4.5l.2.7.8.2h.7V32a5 5 0 01-1.5.2c-1.7 0-2.5-.9-2.6-2.6v-4.8h-1.3V23h1.3v-2.2h2.4zm5.3 3.2a3 3 0 012.3-1.1c2 0 3 1 3 3.3V32h-2.4v-5.7c0-.5-.1-.9-.3-1.1-.2-.3-.6-.4-1.1-.4-.7 0-1.2.3-1.6.8V32h-2.3V19.2h2.3V24zm21 6.5c-.4.5-1 1-1.8 1.2a8 8 0 01-2.7.5c-1 0-2-.3-2.8-.7a4.6 4.6 0 01-1.8-2 7 7 0 01-.7-3v-.9c0-1.2.2-2.2.6-3.1.4-1 1-1.6 1.8-2a5 5 0 012.7-.8 5 5 0 013.3 1c.8.8 1.3 1.8 1.5 3h-2.4c-.2-.6-.4-1.1-.8-1.5-.4-.3-.9-.4-1.5-.4-.9 0-1.5.3-2 1a5 5 0 00-.7 2.8v.7c0 1.3.3 2.2.8 2.9.4.6 1.2 1 2 1 1 0 1.7-.2 2-.6v-2.1h-2.2v-1.9h4.8v4.9zm1.6-3c0-1 .1-1.8.5-2.5.3-.7.8-1.2 1.5-1.6.6-.4 1.4-.5 2.2-.5a4 4 0 013 1c.7.8 1.2 1.8 1.3 3v.7c0 1.4-.4 2.5-1.2 3.3a4 4 0 01-3 1.3 4 4 0 01-3.2-1.3c-.7-.8-1.1-2-1.1-3.4zm2.4.1c0 .9.1 1.5.4 2 .4.4.8.6 1.4.6.6 0 1-.2 1.4-.6.3-.5.5-1.2.5-2.2 0-.8-.2-1.5-.5-2-.3-.4-.8-.6-1.4-.6-.6 0-1 .2-1.3.7-.4.4-.5 1.1-.5 2.1zm7.2-.2c0-.9.2-1.7.5-2.4s.8-1.2 1.5-1.6c.6-.4 1.4-.5 2.2-.5a4 4 0 013 1c.8.8 1.2 1.8 1.3 3v.7c0 1.4-.4 2.5-1.2 3.3a4 4 0 01-3 1.3 4 4 0 01-3.2-1.3c-.7-.8-1.1-2-1.1-3.4zm2.4.2c0 .9.1 1.5.5 2 .3.4.7.6 1.3.6.6 0 1-.2 1.4-.6.3-.5.5-1.2.5-2.2 0-.8-.2-1.5-.5-2-.3-.4-.8-.6-1.4-.6-.6 0-1 .2-1.3.7-.4.4-.5 1.1-.5 2.1zm7.2-.2c0-1.3.3-2.4 1-3.3.7-.8 1.5-1.2 2.7-1.2 1 0 1.7.3 2.3 1V23h2.2v8.7c0 .8-.2 1.5-.5 2-.4.6-.9 1-1.5 1.4a5.3 5.3 0 01-4.2 0c-.6-.2-1.1-.6-1.4-1l1-1.4c.6.6 1.4 1 2.2 1a2 2 0 001.5-.5c.3-.4.5-.9.5-1.5v-.5c-.5.7-1.3 1-2.2 1-1 0-2-.5-2.6-1.3-.6-.8-1-2-1-3.4zm2.4.2c0 .8.2 1.5.5 2 .3.4.8.6 1.4.6.7 0 1.2-.3 1.5-.8v-3.8c-.3-.5-.8-.8-1.5-.8-.6 0-1 .2-1.4.7-.3.5-.5 1.2-.5 2.1zm10.2 4.4h-2.4V19.2h2.4V32zm6.1.2c-1.3 0-2.4-.4-3.2-1.2a4.3 4.3 0 01-1.2-3.3v-.2c0-1 .1-1.7.5-2.4.3-.7.8-1.3 1.5-1.7.6-.4 1.3-.5 2.2-.5 1.2 0 2.2.3 2.9 1.1.7.8 1 1.9 1 3.3v1h-5.7c0 .6.3 1 .7 1.4.4.4.9.5 1.5.5 1 0 1.6-.3 2.2-1l1.1 1.3c-.3.6-.8 1-1.4 1.2-.6.3-1.3.5-2 .5zm-.2-7.4c-.5 0-1 .2-1.2.5-.3.3-.5.8-.6 1.4h3.4v-.2c0-.6-.2-1-.5-1.3-.2-.3-.6-.4-1.1-.4z"/>
  <defs>
    <filter id="filter0_d" width="227" height="56" x="0" y="2" color-interpolation-filters="sRGB" filterUnits="userSpaceOnUse">
      <feFlood flood-opacity="0" result="BackgroundImageFix"/>
      <feColorMatrix in="SourceAlpha" result="hardAlpha" values="0 0 0 0 0 0 0 0 0 0 0 0 0 0 0 0 0 0 127 0"/>
      <feOffset dy="4"/>
      <feGaussianBlur stdDeviation="2"/>
      <feComposite in2="hardAlpha" operator="out"/>
      <feColorMatrix values="0 0 0 0 0 0 0 0 0 0 0 0 0 0 0 0 0 0 0.38 0"/>
      <feBlend in2="BackgroundImageFix" result="effect1_dropShadow"/>
      <feBlend in="SourceGraphic" in2="effect1_dropShadow" result="shape"/>
    </filter>
    <filter id="filter1_dd" width="47.2" height="48.2" x="4.4" y="2.4" color-interpolation-filters="sRGB" filterUnits="userSpaceOnUse">
      <feFlood flood-opacity="0" result="BackgroundImageFix"/>
      <feColorMatrix in="SourceAlpha" result="hardAlpha" values="0 0 0 0 0 0 0 0 0 0 0 0 0 0 0 0 0 0 127 0"/>
      <feOffset dy="1"/>
      <feGaussianBlur stdDeviation=".5"/>
      <feColorMatrix values="0 0 0 0 0 0 0 0 0 0 0 0 0 0 0 0 0 0 0.168 0"/>
      <feBlend in2="BackgroundImageFix" result="effect1_dropShadow"/>
      <feColorMatrix in="SourceAlpha" result="hardAlpha" values="0 0 0 0 0 0 0 0 0 0 0 0 0 0 0 0 0 0 127 0"/>
      <feOffset/>
      <feGaussianBlur stdDeviation=".5"/>
      <feColorMatrix values="0 0 0 0 0 0 0 0 0 0 0 0 0 0 0 0 0 0 0.084 0"/>
      <feBlend in2="effect1_dropShadow" result="effect2_dropShadow"/>
      <feBlend in="SourceGraphic" in2="effect2_dropShadow" result="shape"/>
    </filter>
  </defs>
</svg>
