<svg width="1332" height="1332" viewBox="0 0 1332 1332" fill="none" xmlns="http://www.w3.org/2000/svg">
<mask id="mask0" mask-type="alpha" maskUnits="userSpaceOnUse" x="0" y="0" width="1332" height="1332">
<circle cx="666" cy="666" r="644" transform="rotate(1.93726 666 666)" fill="#C4C4C4"/>
</mask>
<g mask="url(#mask0)">
<mask id="mask1" mask-type="alpha" maskUnits="userSpaceOnUse" x="0" y="0" width="1758" height="1346">
<path d="M1757.85 58.5629L44.1385 0.597656L0.6019 1287.73L1714.31 1345.7L1757.85 58.5629Z" fill="white"/>
</mask>
<g mask="url(#mask1)">
<path d="M1757.85 58.5629L44.1385 0.597656L0.6019 1287.73L1714.31 1345.7L1757.85 58.5629Z" fill="#5359A6"/>
<g opacity="0.7">
<g opacity="0.7">
<path opacity="0.7" d="M216.961 -36.5105L45.5898 -42.307L39.7849 129.311L211.156 135.108L216.961 -36.5105Z" fill="#37ABB7"/>
<path opacity="0.7" d="M1073.82 -7.52794L902.445 -13.3245L896.64 158.294L1068.01 164.09L1073.82 -7.52794Z" fill="#37ABB7"/>
<path opacity="0.7" d="M553.898 146.701L382.527 140.904L376.722 312.523L548.093 318.319L553.898 146.701Z" fill="#37ABB7"/>
<path opacity="0.7" d="M1233.58 341.505L1062.21 335.709L1056.4 507.327L1227.77 513.123L1233.58 341.505Z" fill="#37ABB7"/>
<path opacity="0.7" d="M193.741 649.963L22.3702 644.166L16.5654 815.784L187.936 821.581L193.741 649.963Z" fill="#37ABB7"/>
<path opacity="0.7" d="M873.421 844.767L702.05 838.971L696.245 1010.59L867.616 1016.39L873.421 844.767Z" fill="#37ABB7"/>
<path opacity="0.7" d="M867.616 1016.39L696.245 1010.59L690.44 1182.21L861.811 1188L867.616 1016.39Z" fill="#37ABB7"/>
<path opacity="0.7" d="M347.698 1170.61L176.327 1164.82L170.522 1336.44L341.893 1342.23L347.698 1170.61Z" fill="#37ABB7"/>
</g>
</g>
<g opacity="0.6">
<g opacity="0.6">
<path opacity="0.6" d="M1245.19 -1.73143L1073.82 -7.52795L1068.01 164.09L1239.38 169.887L1245.19 -1.73143Z" fill="#37ABB7"/>
<path opacity="0.6" d="M211.156 135.108L39.7849 129.311L33.98 300.93L205.351 306.726L211.156 135.108Z" fill="#37ABB7"/>
<path opacity="0.6" d="M199.546 478.344L28.1751 472.548L22.3702 644.166L193.741 649.963L199.546 478.344Z" fill="#37ABB7"/>
<path opacity="0.6" d="M182.132 993.199L10.7605 987.403L4.95561 1159.02L176.327 1164.82L182.132 993.199Z" fill="#37ABB7"/>
<path opacity="0.6" d="M1033.18 1193.8L861.811 1188L856.006 1359.62L1027.38 1365.42L1033.18 1193.8Z" fill="#37ABB7"/>
<path opacity="0.6" d="M713.659 495.734L542.288 489.938L536.483 661.556L707.854 667.352L713.659 495.734Z" fill="#37ABB7"/>
</g>
</g>
<g opacity="0.5">
<g opacity="0.5">
<path opacity="0.5" d="M382.527 140.904L211.156 135.108L205.351 306.726L376.722 312.523L382.527 140.904Z" fill="#37ABB7"/>
<path opacity="0.5" d="M205.351 306.726L33.98 300.93L28.1752 472.548L199.546 478.345L205.351 306.726Z" fill="#37ABB7"/>
<path opacity="0.5" d="M1062.21 335.709L890.835 329.912L885.03 501.531L1056.4 507.327L1062.21 335.709Z" fill="#37ABB7"/>
<path opacity="0.5" d="M707.854 667.352L536.483 661.556L530.678 833.174L702.05 838.971L707.854 667.352Z" fill="#37ABB7"/>
<path opacity="0.5" d="M879.225 673.149L707.854 667.352L702.05 838.971L873.421 844.767L879.225 673.149Z" fill="#37ABB7"/>
<path opacity="0.5" d="M530.678 833.174L359.307 827.378L353.503 998.996L524.874 1004.79L530.678 833.174Z" fill="#37ABB7"/>
<path opacity="0.5" d="M702.049 838.971L530.678 833.174L524.873 1004.79L696.245 1010.59L702.049 838.971Z" fill="#37ABB7"/>
<path opacity="0.5" d="M690.44 1182.21L519.069 1176.41L513.264 1348.03L684.635 1353.83L690.44 1182.21Z" fill="#37ABB7"/>
<path opacity="0.5" d="M1375.92 1205.39L1204.55 1199.6L1198.75 1371.21L1370.12 1377.01L1375.92 1205.39Z" fill="#37ABB7"/>
</g>
</g>
<g opacity="0.4">
<g opacity="0.4">
<path opacity="0.4" d="M902.445 -13.3244L731.074 -19.121L725.269 152.497L896.64 158.294L902.445 -13.3244Z" fill="#37ABB7"/>
<path opacity="0.4" d="M1416.56 4.06508L1245.19 -1.73145L1239.38 169.887L1410.75 175.683L1416.56 4.06508Z" fill="#37ABB7"/>
<path opacity="0.4" d="M719.464 324.116L548.093 318.319L542.288 489.937L713.659 495.734L719.464 324.116Z" fill="#37ABB7"/>
<path opacity="0.4" d="M370.917 484.141L199.546 478.344L193.742 649.963L365.113 655.759L370.917 484.141Z" fill="#37ABB7"/>
<path opacity="0.4" d="M1399.14 518.92L1227.77 513.124L1221.97 684.742L1393.34 690.538L1399.14 518.92Z" fill="#37ABB7"/>
<path opacity="0.4" d="M1050.6 678.945L879.225 673.149L873.42 844.767L1044.79 850.564L1050.6 678.945Z" fill="#37ABB7"/>
<path opacity="0.4" d="M1221.97 684.742L1050.6 678.945L1044.79 850.564L1216.16 856.36L1221.97 684.742Z" fill="#37ABB7"/>
<path opacity="0.4" d="M353.503 998.995L182.132 993.199L176.327 1164.82L347.698 1170.61L353.503 998.995Z" fill="#37ABB7"/>
<path opacity="0.4" d="M1038.99 1022.18L867.616 1016.39L861.811 1188L1033.18 1193.8L1038.99 1022.18Z" fill="#37ABB7"/>
</g>
</g>
<g opacity="0.3">
<g opacity="0.3">
<path opacity="0.3" d="M896.64 158.294L725.269 152.497L719.465 324.116L890.836 329.912L896.64 158.294Z" fill="#37ABB7"/>
<path opacity="0.3" d="M1239.38 169.887L1068.01 164.09L1062.21 335.709L1233.58 341.505L1239.38 169.887Z" fill="#37ABB7"/>
<path opacity="0.3" d="M1404.95 347.302L1233.58 341.505L1227.77 513.123L1399.14 518.92L1404.95 347.302Z" fill="#37ABB7"/>
<path opacity="0.3" d="M542.288 489.938L370.917 484.141L365.113 655.759L536.484 661.556L542.288 489.938Z" fill="#37ABB7"/>
<path opacity="0.3" d="M885.031 501.531L713.66 495.734L707.855 667.352L879.226 673.149L885.031 501.531Z" fill="#37ABB7"/>
<path opacity="0.3" d="M536.484 661.556L365.113 655.759L359.308 827.377L530.679 833.174L536.484 661.556Z" fill="#37ABB7"/>
<path opacity="0.3" d="M1393.34 690.538L1221.97 684.742L1216.16 856.36L1387.53 862.157L1393.34 690.538Z" fill="#37ABB7"/>
<path opacity="0.3" d="M359.308 827.378L187.937 821.581L182.132 993.199L353.503 998.996L359.308 827.378Z" fill="#37ABB7"/>
</g>
</g>
<g style="mix-blend-mode:multiply" opacity="0.2">
<g style="mix-blend-mode:multiply" opacity="0.2">
<g style="mix-blend-mode:multiply" opacity="0.2">
<path d="M559.703 -24.9175L388.332 -30.714L382.527 140.904L553.898 146.701L559.703 -24.9175Z" fill="#37ABB7"/>
</g>
<g style="mix-blend-mode:multiply" opacity="0.2">
<path d="M725.269 152.497L553.898 146.701L548.093 318.319L719.464 324.116L725.269 152.497Z" fill="#37ABB7"/>
</g>
<g style="mix-blend-mode:multiply" opacity="0.2">
<path d="M548.093 318.319L376.722 312.523L370.917 484.141L542.288 489.937L548.093 318.319Z" fill="#37ABB7"/>
</g>
<g style="mix-blend-mode:multiply" opacity="0.2">
<path d="M890.836 329.912L719.464 324.116L713.66 495.734L885.031 501.53L890.836 329.912Z" fill="#37ABB7"/>
</g>
<g style="mix-blend-mode:multiply" opacity="0.2">
<path d="M1227.77 513.124L1056.4 507.327L1050.6 678.945L1221.97 684.742L1227.77 513.124Z" fill="#37ABB7"/>
</g>
<g style="mix-blend-mode:multiply" opacity="0.2">
<path d="M365.113 655.759L193.742 649.963L187.937 821.581L359.308 827.377L365.113 655.759Z" fill="#37ABB7"/>
</g>
<g style="mix-blend-mode:multiply" opacity="0.2">
<path d="M1210.36 1027.98L1038.99 1022.18L1033.18 1193.8L1204.55 1199.6L1210.36 1027.98Z" fill="#37ABB7"/>
</g>
</g>
</g>
<path d="M388.332 -30.714L216.961 -36.5105L211.156 135.108L382.527 140.904L388.332 -30.714Z" fill="#37ABB7"/>
<path d="M731.074 -19.121L559.703 -24.9175L553.898 146.701L725.269 152.497L731.074 -19.121Z" fill="#37ABB7"/>
<path d="M1068.01 164.09L896.64 158.294L890.835 329.912L1062.21 335.709L1068.01 164.09Z" fill="#F05D42"/>
<path d="M1056.4 507.327L885.03 501.531L879.225 673.149L1050.6 678.945L1056.4 507.327Z" fill="#37ABB7"/>
<path d="M1044.79 850.564L873.42 844.767L867.616 1016.39L1038.99 1022.18L1044.79 850.564Z" fill="#37ABB7"/>
<path d="M696.245 1010.59L524.874 1004.79L519.069 1176.41L690.44 1182.21L696.245 1010.59Z" fill="#37ABB7"/>
<path d="M524.874 1004.79L353.503 998.996L347.698 1170.61L519.069 1176.41L524.874 1004.79Z" fill="#F05D42"/>
<path d="M1381.73 1033.78L1210.36 1027.98L1204.55 1199.6L1375.92 1205.39L1381.73 1033.78Z" fill="#37ABB7"/>
<path d="M176.327 1164.82L4.95557 1159.02L-0.84932 1330.64L170.522 1336.44L176.327 1164.82Z" fill="#37ABB7"/>
<path d="M519.069 1176.41L347.698 1170.61L341.893 1342.23L513.264 1348.03L519.069 1176.41Z" fill="#37ABB7"/>
<path d="M861.811 1188L690.44 1182.21L684.635 1353.83L856.006 1359.62L861.811 1188Z" fill="#37ABB7"/>
<path d="M1410.75 175.683L1239.38 169.887L1233.58 341.505L1404.95 347.302L1410.75 175.683Z" fill="#C4DD76"/>
<path d="M376.722 312.523L205.351 306.726L199.546 478.345L370.917 484.141L376.722 312.523Z" fill="#C4DD76"/>
<path d="M187.936 821.581L16.5654 815.785L10.7605 987.403L182.132 993.199L187.936 821.581Z" fill="#C4DD76"/>
<path d="M1216.16 856.36L1044.79 850.564L1038.99 1022.18L1210.36 1027.98L1216.16 856.36Z" fill="#C4DD76"/>
<path d="M1387.53 862.157L1216.16 856.36L1210.36 1027.98L1381.73 1033.77L1387.53 862.157Z" fill="#C4DD76"/>
<path d="M1204.55 1199.6L1033.18 1193.8L1027.38 1365.42L1198.75 1371.21L1204.55 1199.6Z" fill="#C4DD76"/>
</g>
</g>
</svg>
